<svg xmlns="http://www.w3.org/2000/svg" xmlns:xlink="http://www.w3.org/1999/xlink" version="1.1" x="0px" y="0px" viewBox="0 0 100 125" enable-background="new 0 0 100 100" xml:space="preserve"><g><path d="M42.4,30.6c2.4-0.4,3.7-3.6,3.1-7c-0.6-3.4-3.1-5.8-5.4-5.4c-2.4,0.4-3.7,3.6-3.1,7C37.6,28.6,40,31,42.4,30.6z"/><path d="M76.7,32.9C76.7,32.9,76.7,32.9,76.7,32.9L76.7,32.9l-0.4,0c-0.5-7.2-3.2-13.6-5.5-17.8c-2.6-4.7-5.2-7.8-5.6-8.2   c-0.3-0.3-0.7-0.5-1.2-0.5c-0.8,0-1.4,0.5-1.4,1.1c0,0.2,0.1,0.5,0.3,0.7l0,0c0.1,0.1,9.6,10.9,10.6,24.7l-48.5,0c0,0,0,0-0.1,0   c-1.3,0-2.4,1.1-2.4,2.4c0,1.3,1.1,2.4,2.4,2.4c0,0,0,0,0,0v0h11v14h13v-14h24.5c-0.4,4.7-2.1,15.3-10.1,24.7   C63.1,62.5,63,62.7,63,63c0,0.6,0.6,1.1,1.4,1.1c0.5,0,0.9-0.2,1.2-0.5l0,0c5.8-6.8,8.4-14.2,9.6-19.1c0.7-2.8,1-5.2,1.1-6.9h0.3   c0,0,0.1,0,0.1,0c1.3,0,2.4-1.1,2.4-2.4C79,34,78,32.9,76.7,32.9z"/><path d="M48.9,55.2L48.9,55.2L48.9,55.2l-13,0v0l0,0L21.8,70l0,0c-0.5,0.6-0.9,1.4-0.9,2.2h0v18.2h0c0,1.4,1,2.7,2.4,3.1   c1.7,0.4,3.4-0.7,3.8-2.4c0.1-0.2,0.1-0.5,0.1-0.7h0v-17l11.4-12.1H45L62,91.9l0,0c0.3,0.5,0.7,1,1.3,1.3c1.6,0.8,3.5,0.2,4.3-1.4   c0.5-1,0.5-2.1-0.1-3L48.9,55.2z"/></g><text x="0" y="115" fill="#000000" font-size="5px" font-weight="bold" font-family="'Helvetica Neue', Helvetica, Arial-Unicode, Arial, Sans-serif">Created by camila sz</text><text x="0" y="120" fill="#000000" font-size="5px" font-weight="bold" font-family="'Helvetica Neue', Helvetica, Arial-Unicode, Arial, Sans-serif">from the Noun Project</text></svg>