<svg xmlns:sketch="http://www.bohemiancoding.com/sketch/ns" xmlns="http://www.w3.org/2000/svg" xmlns:xlink="http://www.w3.org/1999/xlink" version="1.1" x="0px" y="0px" viewBox="-247 370.9 100 125" style="enable-background:new -247 370.9 100 100;" xml:space="preserve"><title>Artboard 1 Copy 2</title><desc>Created with Sketch.</desc><g><path d="M-207.6,433.6l-19.9,3.5c0,1.7,1.3,3,3,3h18.9c1.2,0,2,0,3-1.5l6.5-7.8c-2.8-1.1-5.4-2.7-7.4-4.8L-207.6,433.6z"/><path d="M-186,408.1l-2.5,5l12.1-2.6c1.1-0.2,1.9-1.3,1.9-2.4v-1L-186,408.1z"/><path d="M-182,433.6c0,0-9.2-14.2-9.6-14.6l3.2-14c0.7-3.2-1.3-6.3-4.6-6.8c0,0-6-1-6.6-1c-1,0-2,0.5-2.5,1l-8.9,8   c-0.6,0.5-0.9,0.9-0.9,1.4c0,0.7,0.4,1.1,0.9,1.8l5.3,7.7c0.6,0.9,2,1.5,3.1,1.3l1-0.2l-4.5-9.8l8.5-6.2v1l-2.2,1.9   c0,0-1.8,16.4-1.8,16.6c0,2.1,1,3.5,2.5,5l10.5,10.5l3.5,20c0.3,1.6,1.9,3,3.5,3h1l-1-24C-181.5,435.1-181.5,434.6-182,433.6z"/><path d="M-195.2,391.2c0.2,2.1,3.3,0,4,3.9h0.4c2,0,3.8-1.7,4-3.9l0.5-5.5c0.2-1.7-1.1-3.3-2.8-3.6l-3.4-0.5v1.7   c-1.9,0.6-3.2,2.5-3,4.8L-195.2,391.2z"/></g><text x="-247" y="485.9" fill="#000000" font-size="5px" font-weight="bold" font-family="'Helvetica Neue', Helvetica, Arial-Unicode, Arial, Sans-serif">Created by Ludovic Riffault</text><text x="-247" y="490.9" fill="#000000" font-size="5px" font-weight="bold" font-family="'Helvetica Neue', Helvetica, Arial-Unicode, Arial, Sans-serif">from the Noun Project</text></svg>