<svg xmlns="http://www.w3.org/2000/svg" xmlns:xlink="http://www.w3.org/1999/xlink" version="1.1" x="0px" y="0px" viewBox="0 0 46 72.5" enable-background="new 0 0 46 58" xml:space="preserve"><g><path d="M41.09,44.32l4.61-4.61c0.39-0.39,0.39-1.02,0-1.41s-1.02-0.39-1.41,0l-4.59,4.59c-0.2-0.25-0.51-0.42-0.86-0.38   c-0.25,0.02-0.45,0.14-0.61,0.31l-4.52-4.52c-0.39-0.39-1.02-0.39-1.41,0s-0.39,1.02,0,1.41l4.61,4.61C34.07,45.21,32,47.87,32,51   c0,3.86,3.14,7,7,7s7-3.14,7-7C46,47.87,43.93,45.21,41.09,44.32z M39,56c-2.76,0-5-2.24-5-5s2.24-5,5-5s5,2.24,5,5S41.76,56,39,56   z"/><path d="M6,13.92v0.58c0,0.55,0.45,1,1,1c0.01,0,0.02-0.01,0.04-0.01c0.01,0,0.02,0.01,0.03,0.01c0.03,0,0.06,0,0.09,0   c0.55-0.05,0.95-0.54,0.9-1.09c-0.02-0.16-0.01-0.33-0.02-0.49C11.41,13.41,14,10.5,14,7c0-3.86-3.14-7-7-7S0,3.14,0,7   C0,10.52,2.61,13.43,6,13.92z M7,2c2.76,0,5,2.24,5,5s-2.24,5-5,5S2,9.76,2,7S4.24,2,7,2z"/><path d="M8,33.56c0-0.55-0.45-1-1-1s-1,0.45-1,1v1.66c0,0.55,0.45,1,1,1s1-0.45,1-1V33.56z"/><path d="M7,37.53c-0.55,0-1,0.45-1,1v1.66c0,0.55,0.45,1,1,1s1-0.45,1-1v-1.66C8,37.98,7.55,37.53,7,37.53z"/><path d="M8,22.79c0-0.55-0.45-1-1-1s-1,0.45-1,1v1.66c0,0.55,0.45,1,1,1s1-0.45,1-1V22.79z"/><path d="M8,27.76c0-0.55-0.45-1-1-1s-1,0.45-1,1v2.49c0,0.55,0.45,1,1,1s1-0.45,1-1V27.76z"/><path d="M35.03,36.03c0.2,0.26,0.5,0.4,0.8,0.4c0.21,0,0.42-0.06,0.6-0.2c0.44-0.33,0.53-0.96,0.2-1.4   c-0.37-0.49-0.77-0.97-1.19-1.43c-0.38-0.4-1.01-0.43-1.41-0.05c-0.4,0.38-0.43,1.01-0.05,1.41C34.35,35.17,34.7,35.59,35.03,36.03   z"/><path d="M36.69,38.85c0.22,0.5,0.42,1.01,0.59,1.53c0.14,0.42,0.53,0.69,0.95,0.69c0.1,0,0.21-0.02,0.31-0.05   c0.53-0.17,0.81-0.73,0.64-1.26c-0.19-0.59-0.41-1.17-0.67-1.74c-0.23-0.5-0.82-0.73-1.32-0.5C36.69,37.76,36.46,38.35,36.69,38.85   z"/><path d="M32.89,32.38c0.31-0.46,0.2-1.08-0.26-1.39c-0.77-0.53-1.58-1-2.42-1.39c-0.5-0.23-1.1-0.02-1.33,0.48   c-0.23,0.5-0.02,1.1,0.48,1.33c0.74,0.34,1.45,0.75,2.13,1.22c0.17,0.12,0.37,0.18,0.57,0.18C32.38,32.81,32.7,32.66,32.89,32.38z"/><path d="M26.7,28.4c-0.61-0.13-1.23-0.24-1.84-0.3c-0.54-0.06-1.04,0.34-1.1,0.89c-0.06,0.55,0.34,1.04,0.89,1.1   c0.54,0.06,1.08,0.15,1.62,0.27c0.07,0.02,0.15,0.02,0.22,0.02c0.46,0,0.87-0.32,0.98-0.78C27.58,29.06,27.24,28.52,26.7,28.4z"/><path d="M21.37,27.91c-0.54-0.06-1.08-0.15-1.62-0.26c-0.54-0.12-1.07,0.22-1.19,0.76c-0.12,0.54,0.22,1.07,0.76,1.19   c0.61,0.13,1.22,0.23,1.83,0.3c0.04,0,0.07,0.01,0.11,0.01c0.5,0,0.94-0.38,0.99-0.89C22.32,28.46,21.92,27.97,21.37,27.91z"/><path d="M8.82,20.49c0.5-0.23,0.73-0.82,0.5-1.32c-0.22-0.5-0.42-1.01-0.59-1.53c-0.16-0.51-0.69-0.78-1.2-0.65   C7.37,16.89,7.2,16.81,7,16.81c-0.55,0-1,0.45-1,1v1.66c0,0.55,0.45,1,1,1c0.25,0,0.47-0.1,0.65-0.25   c0.19,0.23,0.47,0.36,0.76,0.36C8.55,20.58,8.69,20.55,8.82,20.49z"/><path d="M10.57,24.61c0.2,0.21,0.46,0.32,0.73,0.32c0.24,0,0.49-0.09,0.68-0.27c0.4-0.38,0.43-1.01,0.05-1.41   c-0.37-0.4-0.73-0.82-1.05-1.26c-0.33-0.44-0.96-0.53-1.4-0.2c-0.44,0.33-0.53,0.96-0.2,1.4C9.75,23.68,10.15,24.16,10.57,24.61z"/><path d="M16.65,26.6c-0.74-0.35-1.46-0.76-2.13-1.22c-0.46-0.31-1.08-0.2-1.39,0.26c-0.31,0.46-0.2,1.08,0.26,1.39   c0.76,0.53,1.58,0.99,2.42,1.38c0.14,0.06,0.28,0.09,0.42,0.09c0.38,0,0.74-0.21,0.91-0.58C17.37,27.43,17.15,26.83,16.65,26.6z"/><path d="M13.71,38.29c-0.39-0.39-1.02-0.39-1.41,0l-4.55,4.55C7.56,42.64,7.3,42.5,7,42.5s-0.56,0.14-0.74,0.34l-4.55-4.55   c-0.39-0.39-1.02-0.39-1.41,0s-0.39,1.02,0,1.41l4.61,4.61C2.07,45.21,0,47.87,0,51c0,3.86,3.14,7,7,7s7-3.14,7-7   c0-3.13-2.07-5.79-4.91-6.68l4.61-4.61C14.1,39.32,14.1,38.68,13.71,38.29z M12,51c0,2.76-2.24,5-5,5s-5-2.24-5-5s2.24-5,5-5   S12,48.24,12,51z"/></g><text x="0" y="73" fill="#000000" font-size="5px" font-weight="bold" font-family="'Helvetica Neue', Helvetica, Arial-Unicode, Arial, Sans-serif">Created by Oliviu Stoian</text><text x="0" y="78" fill="#000000" font-size="5px" font-weight="bold" font-family="'Helvetica Neue', Helvetica, Arial-Unicode, Arial, Sans-serif">from the Noun Project</text></svg>